<svg width="267" height="82" viewBox="0 0 267 82" fill="none" xmlns="http://www.w3.org/2000/svg">
<path d="M161.795 81.4826H90.9161V63.1165C88.5031 46.5539 74.2424 33.8347 57.0102 33.8347H14.754V81.3545C5.66961 72.7815 0 60.6298 0 47.1537C0 21.1869 21.0501 0.13623 47.0169 0.13623C67.0374 0.13623 84.1352 12.6496 90.9161 30.2815V0.264364H161.795C161.794 22.6922 143.606 40.8729 121.169 40.8729V40.9744C143.873 42.4542 161.795 60.0249 161.795 81.4826Z" fill="white"/>
<path d="M258.451 21.0342C259.279 21.0342 259.953 20.8805 260.473 20.5731C261.017 20.2421 261.478 19.6745 261.857 18.8705L266.468 20.041C265.948 21.7437 264.99 23.0443 263.595 23.9429C262.223 24.8178 260.509 25.2553 258.451 25.2553C255.519 25.2553 253.237 24.4276 251.605 22.7723C249.997 21.117 249.193 18.7996 249.193 15.82C249.193 13.0296 250.033 10.7476 251.712 8.97405C253.414 7.2005 255.625 6.31372 258.345 6.31372C260.922 6.31372 263.003 7.16503 264.588 8.86764C266.196 10.5703 267 12.8049 267 15.5717V17.2743H254.443C254.609 18.5276 255.022 19.4735 255.685 20.112C256.37 20.7268 257.293 21.0342 258.451 21.0342ZM258.274 10.5348C257.233 10.5348 256.394 10.8186 255.756 11.3861C255.141 11.93 254.727 12.7458 254.514 13.8336H261.679C261.537 12.7458 261.183 11.93 260.615 11.3861C260.048 10.8186 259.267 10.5348 258.274 10.5348Z" fill="white"/>
<path d="M247.741 13.1596V24.8297H242.349V14.011C242.349 12.9941 242.101 12.2138 241.604 11.6699C241.107 11.126 240.398 10.854 239.476 10.854C238.412 10.854 237.596 11.1733 237.028 11.8117C236.484 12.4266 236.212 13.337 236.212 14.543V24.8297H230.821V6.73937H235.929V8.69029C236.52 7.90992 237.253 7.31874 238.128 6.91673C239.003 6.51472 239.996 6.31372 241.107 6.31372C243.165 6.31372 244.785 6.94038 245.967 8.19369C247.149 9.42336 247.741 11.0787 247.741 13.1596Z" fill="white"/>
<path d="M220.725 21.0342C221.553 21.0342 222.227 20.8805 222.747 20.5731C223.291 20.2421 223.752 19.6745 224.131 18.8705L228.742 20.041C228.222 21.7437 227.264 23.0443 225.869 23.9429C224.497 24.8178 222.783 25.2553 220.725 25.2553C217.793 25.2553 215.511 24.4276 213.88 22.7723C212.272 21.117 211.468 18.7996 211.468 15.82C211.468 13.0296 212.307 10.7476 213.986 8.97405C215.689 7.2005 217.9 6.31372 220.619 6.31372C223.197 6.31372 225.278 7.16503 226.862 8.86764C228.47 10.5703 229.274 12.8049 229.274 15.5717V17.2743H216.717C216.883 18.5276 217.297 19.4735 217.959 20.112C218.645 20.7268 219.567 21.0342 220.725 21.0342ZM220.548 10.5348C219.508 10.5348 218.668 10.8186 218.03 11.3861C217.415 11.93 217.001 12.7458 216.788 13.8336H223.953C223.811 12.7458 223.457 11.93 222.889 11.3861C222.322 10.8186 221.541 10.5348 220.548 10.5348Z" fill="white"/>
<path d="M208.081 24.8298H202.689V11.067H200.064V6.73952H202.689V5.74632C202.689 3.92547 203.257 2.51845 204.392 1.52526C205.55 0.50842 207.218 0 209.393 0H212.656V4.43389H209.677C209.133 4.43389 208.731 4.57578 208.471 4.85955C208.211 5.14332 208.081 5.59262 208.081 6.20745V6.73952H211.983V11.067H208.081V24.8298Z" fill="white"/>
<path d="M196.406 24.8298H191.014V11.067H188.389V6.73952H191.014V5.74632C191.014 3.92547 191.581 2.51845 192.717 1.52526C193.875 0.50842 195.542 0 197.718 0H200.981V4.43389H198.002C197.458 4.43389 197.056 4.57578 196.796 4.85955C196.536 5.14332 196.406 5.59262 196.406 6.20745V6.73952H200.307V11.067H196.406V24.8298Z" fill="white"/>
<path d="M169.653 15.7845C169.653 12.9468 170.504 10.6648 172.207 8.93858C173.909 7.18867 176.167 6.31372 178.981 6.31372C181.843 6.31372 184.113 7.17685 185.792 8.90311C187.495 10.6294 188.346 12.9232 188.346 15.7845C188.346 18.5986 187.483 20.8805 185.756 22.6304C184.054 24.3804 181.796 25.2553 178.981 25.2553C176.12 25.2553 173.85 24.3922 172.171 22.6659C170.492 20.9397 169.653 18.6459 169.653 15.7845ZM182.883 15.7845C182.883 14.1292 182.552 12.8641 181.89 11.9891C181.228 11.0905 180.258 10.6412 178.981 10.6412C177.728 10.6412 176.77 11.0905 176.108 11.9891C175.446 12.8877 175.115 14.1528 175.115 15.7845C175.115 17.4162 175.446 18.6813 176.108 19.5799C176.77 20.4785 177.728 20.9278 178.981 20.9278C180.258 20.9278 181.228 20.4903 181.89 19.6154C182.552 18.7168 182.883 17.4398 182.883 15.7845Z" fill="white"/>
<path d="M255.846 41.1816V52.8516H250.454V42.0329C250.454 41.0161 250.206 40.2357 249.709 39.6918C249.212 39.1479 248.503 38.876 247.581 38.876C246.517 38.876 245.701 39.1952 245.133 39.8337C244.589 40.4486 244.317 41.359 244.317 42.565V52.8516H238.926V34.7613H244.034V36.7123C244.625 35.9319 245.358 35.3407 246.233 34.9387C247.108 34.5367 248.101 34.3357 249.212 34.3357C251.27 34.3357 252.89 34.9623 254.072 36.2157C255.254 37.4453 255.846 39.1006 255.846 41.1816Z" fill="white"/>
<path d="M228.83 49.0562C229.658 49.0562 230.332 48.9025 230.852 48.5951C231.396 48.264 231.857 47.6965 232.236 46.8925L236.847 48.063C236.327 49.7656 235.369 51.0662 233.974 51.9648C232.602 52.8398 230.888 53.2773 228.83 53.2773C225.898 53.2773 223.616 52.4496 221.985 50.7943C220.377 49.139 219.573 46.8215 219.573 43.842C219.573 41.0516 220.412 38.7696 222.091 36.996C223.794 35.2225 226.005 34.3357 228.724 34.3357C231.302 34.3357 233.383 35.187 234.967 36.8896C236.575 38.5922 237.379 40.8269 237.379 43.5937V45.2963H224.822C224.988 46.5496 225.402 47.4955 226.064 48.134C226.75 48.7488 227.672 49.0562 228.83 49.0562ZM228.653 38.5568C227.613 38.5568 226.773 38.8405 226.135 39.4081C225.52 39.952 225.106 40.7678 224.893 41.8556H232.058C231.916 40.7678 231.562 39.952 230.994 39.4081C230.427 38.8405 229.646 38.5568 228.653 38.5568Z" fill="white"/>
<path d="M207.574 34.7619H210.199V29.4058H215.591V34.7619H219.138V39.0894H215.591V46.7866C215.591 47.3778 215.709 47.8035 215.946 48.0636C216.182 48.3001 216.56 48.4183 217.081 48.4183H219.493V52.8522H215.91C213.947 52.8522 212.505 52.4383 211.583 51.6107C210.66 50.7594 210.199 49.4233 210.199 47.6025V39.0894H207.574V34.7619Z" fill="white"/>
<path d="M208.29 48.4177V52.8516H205.772C204.731 52.8516 203.868 52.6861 203.182 52.355C202.497 52.0003 202.024 51.4801 201.763 50.7943C201.172 51.5983 200.416 52.2131 199.493 52.6388C198.595 53.0645 197.554 53.2773 196.372 53.2773C194.456 53.2773 192.908 52.7807 191.725 51.7875C190.566 50.7707 189.987 49.4937 189.987 47.9566C189.987 46.4195 190.448 45.178 191.37 44.2321C192.316 43.2626 193.688 42.6241 195.485 42.3167L200.132 41.5363C200.487 41.4654 200.735 41.3472 200.877 41.1816C201.042 40.9924 201.125 40.7323 201.125 40.4013C201.125 39.8101 200.9 39.3371 200.451 38.9824C200.002 38.6041 199.375 38.4149 198.571 38.4149C197.72 38.4149 197.034 38.6159 196.514 39.0179C196.017 39.4199 195.698 39.9993 195.556 40.756L190.484 40.2239C190.72 38.4976 191.583 37.0906 193.073 36.0028C194.563 34.8914 196.466 34.3357 198.784 34.3357C201.196 34.3357 203.064 34.9505 204.388 36.1802C205.736 37.4099 206.41 39.0652 206.41 41.1462V47.1053C206.41 47.5782 206.505 47.9211 206.694 48.134C206.907 48.3231 207.226 48.4177 207.652 48.4177H208.29ZM195.272 47.3891C195.272 47.9803 195.461 48.4414 195.84 48.7724C196.242 49.0799 196.809 49.2336 197.542 49.2336C198.607 49.2336 199.481 48.8907 200.167 48.2049C200.877 47.4955 201.231 46.6087 201.231 45.5446V44.8706L197.401 45.4382C196.691 45.5564 196.159 45.7692 195.804 46.0766C195.45 46.3841 195.272 46.8215 195.272 47.3891Z" fill="white"/>
<path d="M177.74 53.2777C175.281 53.2777 173.318 52.4382 171.852 50.7592C170.386 49.0566 169.653 46.7864 169.653 43.9488C169.653 41.0874 170.386 38.77 171.852 36.9964C173.342 35.2229 175.304 34.3361 177.74 34.3361C178.828 34.3361 179.809 34.5371 180.684 34.9391C181.559 35.3174 182.316 35.885 182.954 36.6417V28.0222H188.346V52.852H183.238V50.5109C182.6 51.4332 181.819 52.1308 180.897 52.6037C179.975 53.053 178.922 53.2777 177.74 53.2777ZM175.186 43.8069C175.186 45.3203 175.529 46.5381 176.215 47.4604C176.901 48.359 177.835 48.8083 179.017 48.8083C180.247 48.8083 181.216 48.359 181.926 47.4604C182.659 46.5618 183.025 45.344 183.025 43.8069C183.025 42.3407 182.659 41.1465 181.926 40.2243C181.193 39.302 180.223 38.8409 179.017 38.8409C177.835 38.8409 176.901 39.2902 176.215 40.1888C175.529 41.0874 175.186 42.2934 175.186 43.8069Z" fill="white"/>
<path d="M231.4 69.5234V81.1934H226.009V70.3747C226.009 69.3579 225.761 68.5775 225.264 68.0336C224.767 67.4897 224.058 67.2178 223.136 67.2178C222.072 67.2178 221.256 67.537 220.688 68.1755C220.144 68.7903 219.872 69.7008 219.872 70.9068V81.1934H214.481V63.1031H219.589V65.0541C220.18 64.2737 220.913 63.6825 221.788 63.2805C222.663 62.8785 223.656 62.6775 224.767 62.6775C226.825 62.6775 228.445 63.3041 229.627 64.5575C230.809 65.7871 231.4 67.4424 231.4 69.5234Z" fill="white"/>
<path d="M206.512 81.1931V56.3633H211.904V81.1931H206.512Z" fill="white"/>
<path d="M194.807 58.6693C194.807 59.4024 194.547 60.029 194.027 60.5493C193.506 61.0695 192.868 61.3296 192.111 61.3296C191.378 61.3296 190.752 61.0695 190.231 60.5493C189.711 60.029 189.451 59.4024 189.451 58.6693C189.451 57.9362 189.711 57.3214 190.231 56.8248C190.752 56.3046 191.378 56.0444 192.111 56.0444C192.868 56.0444 193.506 56.3046 194.027 56.8248C194.547 57.3214 194.807 57.9362 194.807 58.6693ZM201.653 58.6693C201.653 59.4024 201.393 60.029 200.873 60.5493C200.376 61.0695 199.749 61.3296 198.993 61.3296C198.26 61.3296 197.633 61.0695 197.113 60.5493C196.592 60.029 196.332 59.4024 196.332 58.6693C196.332 57.9362 196.592 57.3214 197.113 56.8248C197.633 56.3046 198.26 56.0444 198.993 56.0444C199.726 56.0444 200.352 56.3046 200.873 56.8248C201.393 57.3214 201.653 57.9362 201.653 58.6693ZM186.223 72.1483C186.223 69.3106 187.074 67.0287 188.777 65.3024C190.48 63.5525 192.738 62.6775 195.552 62.6775C198.413 62.6775 200.683 63.5407 202.362 65.2669C204.065 66.9932 204.916 69.287 204.916 72.1483C204.916 74.9624 204.053 77.2444 202.327 78.9943C200.624 80.7442 198.366 81.6191 195.552 81.6191C192.691 81.6191 190.42 80.756 188.741 79.0297C187.063 77.3035 186.223 75.0097 186.223 72.1483ZM199.454 72.1483C199.454 70.493 199.123 69.2279 198.461 68.3529C197.798 67.4543 196.829 67.005 195.552 67.005C194.299 67.005 193.341 67.4543 192.679 68.3529C192.017 69.2515 191.686 70.5167 191.686 72.1483C191.686 73.78 192.017 75.0451 192.679 75.9437C193.341 76.8423 194.299 77.2916 195.552 77.2916C196.829 77.2916 197.798 76.8542 198.461 75.9792C199.123 75.0806 199.454 73.8037 199.454 72.1483Z" fill="white"/>
<path d="M180.755 70.0906L187.991 81.1931H181.429L176.818 73.957L175.044 75.766V81.1931H169.653V56.3633H175.044V69.1684L180.755 63.1028H187.424L180.755 70.0906Z" fill="white"/>
</svg>
