<svg width="179" height="42" viewBox="0 0 179 42" fill="none" xmlns="http://www.w3.org/2000/svg">
<path d="M173.777 10.824C174.203 10.824 174.55 10.7449 174.817 10.5867C175.097 10.4163 175.335 10.1243 175.529 9.71056L177.902 10.3129C177.634 11.189 177.142 11.8583 176.424 12.3207C175.718 12.771 174.836 12.9961 173.777 12.9961C172.268 12.9961 171.094 12.5702 170.254 11.7184C169.427 10.8666 169.013 9.67405 169.013 8.14081C169.013 6.70491 169.445 5.53064 170.309 4.61799C171.185 3.70535 172.323 3.24902 173.722 3.24902C175.049 3.24902 176.119 3.68709 176.935 4.56323C177.762 5.43937 178.176 6.58931 178.176 8.01304V8.88918H171.714C171.8 9.53411 172.013 10.0209 172.353 10.3494C172.706 10.6658 173.181 10.824 173.777 10.824ZM173.686 5.42112C173.15 5.42112 172.718 5.56714 172.39 5.85919C172.073 6.13907 171.86 6.55889 171.751 7.11864H175.438C175.365 6.55889 175.182 6.13907 174.89 5.85919C174.598 5.56714 174.197 5.42112 173.686 5.42112Z" fill="white"/>
<path d="M168.265 6.77184V12.7771H165.491V7.20991C165.491 6.68666 165.363 6.28509 165.108 6.00522C164.852 5.72534 164.487 5.5854 164.012 5.5854C163.465 5.5854 163.045 5.74967 162.753 6.07823C162.473 6.39461 162.333 6.8631 162.333 7.4837V12.7771H159.559V3.46806H162.187V4.47197C162.491 4.07041 162.869 3.76619 163.319 3.55932C163.769 3.35246 164.28 3.24902 164.852 3.24902C165.911 3.24902 166.744 3.57149 167.353 4.21643C167.961 4.8492 168.265 5.701 168.265 6.77184Z" fill="white"/>
<path d="M154.365 10.824C154.791 10.824 155.137 10.7449 155.405 10.5867C155.685 10.4163 155.922 10.1243 156.117 9.71056L158.49 10.3129C158.222 11.189 157.729 11.8583 157.011 12.3207C156.306 12.771 155.423 12.9961 154.365 12.9961C152.856 12.9961 151.682 12.5702 150.842 11.7184C150.014 10.8666 149.601 9.67405 149.601 8.14081C149.601 6.70491 150.033 5.53064 150.897 4.61799C151.773 3.70535 152.911 3.24902 154.31 3.24902C155.636 3.24902 156.707 3.68709 157.523 4.56323C158.35 5.43937 158.764 6.58931 158.764 8.01304V8.88918H152.302C152.387 9.53411 152.6 10.0209 152.941 10.3494C153.294 10.6658 153.768 10.824 154.365 10.824ZM154.273 5.42112C153.738 5.42112 153.306 5.56714 152.978 5.85919C152.661 6.13907 152.448 6.55889 152.339 7.11864H156.026C155.953 6.55889 155.77 6.13907 155.478 5.85919C155.186 5.56714 154.785 5.42112 154.273 5.42112Z" fill="white"/>
<path d="M147.858 12.7771H145.084V5.69491H143.733V3.46806H145.084V2.95697C145.084 2.01999 145.376 1.29596 145.96 0.784877C146.556 0.261625 147.414 0 148.533 0H150.213V2.28162H148.679C148.4 2.28162 148.193 2.35463 148.059 2.50065C147.925 2.64668 147.858 2.87788 147.858 3.19426V3.46806H149.866V5.69491H147.858V12.7771Z" fill="white"/>
<path d="M141.848 12.7771H139.074V5.69491H137.723V3.46806H139.074V2.95697C139.074 2.01999 139.366 1.29596 139.95 0.784877C140.546 0.261625 141.404 0 142.523 0H144.203V2.28162H142.669C142.39 2.28162 142.183 2.35463 142.049 2.50065C141.915 2.64668 141.848 2.87788 141.848 3.19426V3.46806H143.856V5.69491H141.848V12.7771Z" fill="white"/>
<path d="M128.083 8.12256C128.083 6.66232 128.521 5.48805 129.397 4.59974C130.273 3.69926 131.435 3.24902 132.883 3.24902C134.356 3.24902 135.524 3.69318 136.388 4.58149C137.264 5.4698 137.702 6.65015 137.702 8.12256C137.702 9.57062 137.258 10.7449 136.37 11.6454C135.493 12.5458 134.331 12.9961 132.883 12.9961C131.411 12.9961 130.243 12.5519 129.379 11.6636C128.515 10.7753 128.083 9.59496 128.083 8.12256ZM134.891 8.12256C134.891 7.27075 134.721 6.61973 134.38 6.16949C134.039 5.70708 133.54 5.47588 132.883 5.47588C132.238 5.47588 131.745 5.70708 131.405 6.16949C131.064 6.6319 130.894 7.28292 130.894 8.12256C130.894 8.96219 131.064 9.61321 131.405 10.0756C131.745 10.538 132.238 10.7692 132.883 10.7692C133.54 10.7692 134.039 10.5441 134.38 10.0939C134.721 9.63146 134.891 8.97436 134.891 8.12256Z" fill="white"/>
<path d="M172.436 21.1916V27.1969H169.661V21.6297C169.661 21.1065 169.533 20.7049 169.278 20.425C169.022 20.1451 168.657 20.0052 168.183 20.0052C167.635 20.0052 167.215 20.1695 166.923 20.498C166.643 20.8144 166.503 21.2829 166.503 21.9035V27.1969H163.729V17.8879H166.357V18.8918C166.662 18.4902 167.039 18.186 167.489 17.9791C167.939 17.7723 168.45 17.6688 169.022 17.6688C170.081 17.6688 170.915 17.9913 171.523 18.6362C172.131 19.269 172.436 20.1208 172.436 21.1916Z" fill="white"/>
<path d="M158.535 25.2438C158.961 25.2438 159.308 25.1647 159.575 25.0065C159.855 24.8362 160.093 24.5441 160.287 24.1304L162.66 24.7327C162.392 25.6089 161.9 26.2781 161.182 26.7405C160.476 27.1908 159.594 27.4159 158.535 27.4159C157.026 27.4159 155.852 26.99 155.012 26.1382C154.185 25.2864 153.771 24.0939 153.771 22.5606C153.771 21.1247 154.203 19.9504 155.067 19.0378C155.943 18.1252 157.081 17.6688 158.48 17.6688C159.807 17.6688 160.877 18.1069 161.693 18.983C162.52 19.8592 162.934 21.0091 162.934 22.4328V23.309H156.472C156.558 23.9539 156.771 24.4407 157.111 24.7692C157.464 25.0856 157.939 25.2438 158.535 25.2438ZM158.444 19.8409C157.908 19.8409 157.476 19.987 157.148 20.279C156.831 20.5589 156.618 20.9787 156.509 21.5385H160.196C160.123 20.9787 159.94 20.5589 159.648 20.279C159.356 19.987 158.955 19.8409 158.444 19.8409Z" fill="white"/>
<path d="M147.596 17.8879H148.946V15.1317H151.721V17.8879H153.546V20.1147H151.721V24.0756C151.721 24.3798 151.782 24.5989 151.903 24.7327C152.025 24.8544 152.22 24.9153 152.487 24.9153H153.729V27.1969H151.885C150.875 27.1969 150.133 26.9839 149.658 26.558C149.184 26.1199 148.946 25.4324 148.946 24.4954V20.1147H147.596V17.8879Z" fill="white"/>
<path d="M147.966 24.9152V27.1969H146.67C146.134 27.1969 145.69 27.1117 145.337 26.9413C144.984 26.7588 144.741 26.4911 144.607 26.1382C144.303 26.5519 143.914 26.8683 143.439 27.0873C142.977 27.3064 142.441 27.4159 141.833 27.4159C140.847 27.4159 140.05 27.1604 139.442 26.6493C138.845 26.126 138.547 25.4689 138.547 24.678C138.547 23.887 138.784 23.2481 139.259 22.7614C139.746 22.2625 140.452 21.9339 141.376 21.7757L143.768 21.3742C143.95 21.3377 144.078 21.2768 144.151 21.1916C144.236 21.0943 144.279 20.9604 144.279 20.7901C144.279 20.4859 144.163 20.2425 143.932 20.06C143.701 19.8653 143.378 19.7679 142.964 19.7679C142.526 19.7679 142.173 19.8714 141.906 20.0782C141.65 20.2851 141.486 20.5832 141.413 20.9726L138.803 20.6988C138.924 19.8105 139.369 19.0865 140.135 18.5267C140.902 17.9548 141.881 17.6688 143.074 17.6688C144.315 17.6688 145.276 17.9852 145.958 18.618C146.651 19.2508 146.998 20.1026 146.998 21.1734V24.2399C146.998 24.4833 147.047 24.6597 147.144 24.7692C147.254 24.8666 147.418 24.9152 147.637 24.9152H147.966ZM141.267 24.3859C141.267 24.6901 141.364 24.9274 141.559 25.0978C141.766 25.256 142.058 25.3351 142.435 25.3351C142.983 25.3351 143.433 25.1586 143.786 24.8057C144.151 24.4407 144.333 23.9843 144.333 23.4368V23.09L142.362 23.382C141.997 23.4428 141.723 23.5524 141.541 23.7106C141.358 23.8687 141.267 24.0939 141.267 24.3859Z" fill="white"/>
<path d="M132.244 27.4159C130.979 27.4159 129.969 26.9839 129.214 26.1199C128.46 25.2438 128.083 24.0756 128.083 22.6154C128.083 21.143 128.46 19.9504 129.214 19.0378C129.981 18.1252 130.991 17.6688 132.244 17.6688C132.804 17.6688 133.309 17.7723 133.759 17.9791C134.21 18.1738 134.599 18.4659 134.928 18.8553V14.4198H137.702V27.1969H135.074V25.9922C134.745 26.4667 134.343 26.8257 133.869 27.0691C133.394 27.3003 132.853 27.4159 132.244 27.4159ZM130.93 22.5424C130.93 23.3212 131.107 23.9478 131.459 24.4224C131.812 24.8848 132.293 25.116 132.901 25.116C133.534 25.116 134.033 24.8848 134.398 24.4224C134.775 23.96 134.964 23.3333 134.964 22.5424C134.964 21.7879 134.775 21.1734 134.398 20.6988C134.021 20.2242 133.522 19.987 132.901 19.987C132.293 19.987 131.812 20.2182 131.459 20.6806C131.107 21.143 130.93 21.7636 130.93 22.5424Z" fill="white"/>
<path d="M159.858 35.7757V41.781H157.083V36.2138C157.083 35.6906 156.955 35.289 156.7 35.0091C156.444 34.7292 156.079 34.5893 155.605 34.5893C155.057 34.5893 154.637 34.7536 154.345 35.0821C154.065 35.3985 153.925 35.867 153.925 36.4876V41.781H151.151V32.472H153.779V33.4759C154.084 33.0743 154.461 32.7701 154.911 32.5632C155.361 32.3564 155.872 32.2529 156.444 32.2529C157.503 32.2529 158.337 32.5754 158.945 33.2203C159.553 33.8531 159.858 34.7049 159.858 35.7757Z" fill="white"/>
<path d="M147.051 41.781V29.0039H149.825V41.781H147.051Z" fill="white"/>
<path d="M141.027 30.1904C141.027 30.5676 140.893 30.8901 140.625 31.1578C140.357 31.4255 140.029 31.5593 139.639 31.5593C139.262 31.5593 138.94 31.4255 138.672 31.1578C138.404 30.8901 138.27 30.5676 138.27 30.1904C138.27 29.8131 138.404 29.4967 138.672 29.2412C138.94 28.9735 139.262 28.8396 139.639 28.8396C140.029 28.8396 140.357 28.9735 140.625 29.2412C140.893 29.4967 141.027 29.8131 141.027 30.1904ZM144.549 30.1904C144.549 30.5676 144.415 30.8901 144.148 31.1578C143.892 31.4255 143.57 31.5593 143.18 31.5593C142.803 31.5593 142.481 31.4255 142.213 31.1578C141.945 30.8901 141.811 30.5676 141.811 30.1904C141.811 29.8131 141.945 29.4967 142.213 29.2412C142.481 28.9735 142.803 28.8396 143.18 28.8396C143.558 28.8396 143.88 28.9735 144.148 29.2412C144.415 29.4967 144.549 29.8131 144.549 30.1904ZM136.609 37.1265C136.609 35.6662 137.047 34.492 137.924 33.6037C138.8 32.7032 139.962 32.2529 141.41 32.2529C142.882 32.2529 144.05 32.6971 144.914 33.5854C145.791 34.4737 146.229 35.6541 146.229 37.1265C146.229 38.5745 145.784 39.7488 144.896 40.6493C144.02 41.5498 142.858 42 141.41 42C139.937 42 138.769 41.5558 137.905 40.6675C137.041 39.7792 136.609 38.5989 136.609 37.1265ZM143.418 37.1265C143.418 36.2747 143.247 35.6236 142.907 35.1734C142.566 34.711 142.067 34.4798 141.41 34.4798C140.765 34.4798 140.272 34.711 139.931 35.1734C139.591 35.6358 139.42 36.2868 139.42 37.1265C139.42 37.9661 139.591 38.6171 139.931 39.0795C140.272 39.5419 140.765 39.7731 141.41 39.7731C142.067 39.7731 142.566 39.548 142.907 39.0978C143.247 38.6354 143.418 37.9783 143.418 37.1265Z" fill="white"/>
<path d="M133.796 36.0678L137.519 41.781H134.143L131.77 38.0574L130.857 38.9883V41.781H128.083V29.0039H130.857V35.5932L133.796 32.472H137.227L133.796 36.0678Z" fill="white"/>
<path d="M20.8934 41.7869C32.4326 41.7869 41.7869 32.4326 41.7869 20.8934C41.7869 9.35431 32.4326 0 20.8934 0C9.35431 0 0 9.35431 0 20.8934C0 32.4326 9.35431 41.7869 20.8934 41.7869Z" fill="white"/>
<path d="M87.7187 20.8934C87.7187 32.4323 78.3646 41.7869 66.8253 41.7869H41.7855V0H66.8253C78.3646 0 87.7187 9.35416 87.7187 20.8934Z" fill="white"/>
<path fill-rule="evenodd" clip-rule="evenodd" d="M103.276 41.7869V20.8931C114.815 20.8931 124.17 11.5393 124.17 0H87.7175V41.7869H103.276ZM103.277 41.7869H124.17C124.17 30.248 114.816 20.8938 103.277 20.8934V41.7869Z" fill="white"/>
</svg>
