<svg width="136" height="42" viewBox="0 0 136 42" fill="none" xmlns="http://www.w3.org/2000/svg">
<path d="M82.3657 41.7056H46.283V32.3559C45.0546 23.9243 37.7948 17.4493 29.0224 17.4493H7.51088V41.6404C2.88625 37.2761 0 31.09 0 24.2297C0 11.0107 10.7161 0.294312 23.9351 0.294312C34.127 0.294312 42.831 6.66455 46.283 15.6405V0.359541H82.3657C82.3651 11.777 73.106 21.0323 61.684 21.0323V21.0839C73.242 21.8373 82.3657 30.782 82.3657 41.7056Z" fill="#A01E28"/>
<path d="M131.571 10.9329C131.992 10.9329 132.335 10.8547 132.6 10.6982C132.877 10.5296 133.112 10.2407 133.304 9.83141L135.652 10.4273C135.387 11.2941 134.899 11.9562 134.189 12.4136C133.491 12.859 132.618 13.0817 131.571 13.0817C130.078 13.0817 128.916 12.6604 128.086 11.8177C127.267 10.975 126.858 9.7953 126.858 8.27847C126.858 6.85796 127.285 5.69626 128.14 4.79339C129.007 3.89052 130.132 3.43909 131.517 3.43909C132.829 3.43909 133.888 3.87247 134.695 4.73922C135.513 5.60598 135.923 6.74359 135.923 8.15207V9.01883H129.53C129.615 9.65686 129.825 10.1384 130.162 10.4634C130.512 10.7764 130.981 10.9329 131.571 10.9329ZM131.481 5.58792C130.951 5.58792 130.524 5.73238 130.199 6.0213C129.886 6.29818 129.675 6.7135 129.567 7.26726H133.214C133.142 6.7135 132.961 6.29818 132.672 6.0213C132.383 5.73238 131.986 5.58792 131.481 5.58792Z" fill="#A01E28"/>
<path d="M126.118 6.92417V12.8651H123.374V7.35755C123.374 6.8399 123.247 6.44264 122.994 6.16576C122.742 5.88888 122.38 5.75044 121.911 5.75044C121.369 5.75044 120.954 5.91295 120.665 6.23799C120.388 6.55098 120.25 7.01446 120.25 7.62841V12.8651H117.505V3.65578H120.105V4.64893C120.406 4.25167 120.779 3.95071 121.225 3.74606C121.67 3.54141 122.176 3.43909 122.742 3.43909C123.789 3.43909 124.613 3.7581 125.215 4.39613C125.817 5.02212 126.118 5.8648 126.118 6.92417Z" fill="#A01E28"/>
<path d="M112.366 10.9329C112.787 10.9329 113.13 10.8547 113.395 10.6982C113.672 10.5296 113.907 10.2407 114.099 9.83141L116.447 10.4273C116.182 11.2941 115.694 11.9562 114.984 12.4136C114.286 12.859 113.413 13.0817 112.366 13.0817C110.873 13.0817 109.711 12.6604 108.881 11.8177C108.062 10.975 107.653 9.7953 107.653 8.27847C107.653 6.85796 108.08 5.69626 108.935 4.79339C109.802 3.89052 110.927 3.43909 112.312 3.43909C113.624 3.43909 114.683 3.87247 115.49 4.73922C116.308 5.60598 116.718 6.74359 116.718 8.15207V9.01883H110.325C110.41 9.65686 110.62 10.1384 110.957 10.4634C111.306 10.7764 111.776 10.9329 112.366 10.9329ZM112.276 5.58792C111.746 5.58792 111.318 5.73238 110.993 6.0213C110.68 6.29818 110.47 6.7135 110.361 7.26726H114.009C113.937 6.7135 113.756 6.29818 113.467 6.0213C113.178 5.73238 112.781 5.58792 112.276 5.58792Z" fill="#A01E28"/>
<path d="M105.929 12.865H103.184V5.85877H101.848V3.65576H103.184V3.15016C103.184 2.22321 103.473 1.50693 104.051 1.00132C104.641 0.483677 105.489 0.224854 106.597 0.224854H108.258V2.48203H106.741C106.464 2.48203 106.26 2.55426 106.127 2.69872C105.995 2.84318 105.929 3.07191 105.929 3.3849V3.65576H107.915V5.85877H105.929V12.865Z" fill="#A01E28"/>
<path d="M99.9848 12.865H97.2401V5.85877H95.9038V3.65576H97.2401V3.15016C97.2401 2.22321 97.529 1.50693 98.1068 1.00132C98.6967 0.483677 99.5454 0.224854 100.653 0.224854H102.314V2.48203H100.797C100.52 2.48203 100.316 2.55426 100.183 2.69872C100.051 2.84318 99.9848 3.07191 99.9848 3.3849V3.65576H101.971V5.85877H99.9848V12.865Z" fill="#A01E28"/>
<path d="M86.3657 8.26042C86.3657 6.81582 86.7991 5.65413 87.6659 4.77534C88.5326 3.8845 89.6823 3.43909 91.1148 3.43909C92.5715 3.43909 93.7271 3.87848 94.5818 4.75728C95.4486 5.63607 95.882 6.80379 95.882 8.26042C95.882 9.69297 95.4426 10.8547 94.5638 11.7455C93.697 12.6363 92.5474 13.0817 91.1148 13.0817C89.6582 13.0817 88.5025 12.6424 87.6478 11.7636C86.7931 10.8848 86.3657 9.71705 86.3657 8.26042ZM93.1011 8.26042C93.1011 7.41774 92.9326 6.77369 92.5955 6.32827C92.2585 5.87082 91.7649 5.64209 91.1148 5.64209C90.4768 5.64209 89.9892 5.87082 89.6522 6.32827C89.3151 6.78573 89.1466 7.42978 89.1466 8.26042C89.1466 9.09106 89.3151 9.73511 89.6522 10.1926C89.9892 10.65 90.4768 10.8787 91.1148 10.8787C91.7649 10.8787 92.2585 10.656 92.5955 10.2106C92.9326 9.75316 93.1011 9.1031 93.1011 8.26042Z" fill="#A01E28"/>
<path d="M130.244 21.1895V27.1304H127.5V21.6229C127.5 21.1053 127.373 20.708 127.12 20.4311C126.868 20.1543 126.506 20.0158 126.037 20.0158C125.495 20.0158 125.08 20.1783 124.791 20.5034C124.514 20.8164 124.376 21.2798 124.376 21.8938V27.1304H121.631V17.9212H124.231V18.9143C124.532 18.5171 124.905 18.2161 125.351 18.0114C125.796 17.8068 126.302 17.7045 126.868 17.7045C127.915 17.7045 128.739 18.0235 129.341 18.6615C129.943 19.2875 130.244 20.1302 130.244 21.1895Z" fill="#A01E28"/>
<path d="M116.492 25.1983C116.913 25.1983 117.256 25.12 117.521 24.9635C117.798 24.795 118.033 24.5061 118.225 24.0968L120.573 24.6927C120.308 25.5594 119.82 26.2215 119.11 26.679C118.412 27.1244 117.539 27.3471 116.492 27.3471C114.999 27.3471 113.837 26.9258 113.007 26.0831C112.188 25.2404 111.779 24.0607 111.779 22.5439C111.779 21.1233 112.206 19.9616 113.061 19.0588C113.928 18.1559 115.053 17.7045 116.438 17.7045C117.75 17.7045 118.809 18.1378 119.616 19.0046C120.434 19.8714 120.844 21.009 120.844 22.4175V23.2842H114.451C114.536 23.9222 114.746 24.4038 115.083 24.7288C115.432 25.0418 115.902 25.1983 116.492 25.1983ZM116.402 19.8533C115.872 19.8533 115.444 19.9978 115.119 20.2867C114.806 20.5636 114.596 20.9789 114.487 21.5326H118.135C118.063 20.9789 117.882 20.5636 117.593 20.2867C117.304 19.9978 116.907 19.8533 116.402 19.8533Z" fill="#A01E28"/>
<path d="M105.671 17.9211H107.007V15.1945H109.752V17.9211H111.558V20.1241H109.752V24.0426C109.752 24.3436 109.812 24.5602 109.932 24.6927C110.053 24.813 110.245 24.8732 110.51 24.8732H111.738V27.1304H109.914C108.915 27.1304 108.181 26.9197 107.711 26.4984C107.242 26.065 107.007 25.3849 107.007 24.4579V20.1241H105.671V17.9211Z" fill="#A01E28"/>
<path d="M106.035 24.8733V27.1304H104.753C104.223 27.1304 103.784 27.0462 103.435 26.8776C103.086 26.6971 102.845 26.4322 102.712 26.0831C102.411 26.4924 102.026 26.8054 101.557 27.0221C101.099 27.2388 100.57 27.3471 99.9676 27.3471C98.9925 27.3471 98.204 27.0943 97.6021 26.5887C97.0122 26.0711 96.7173 25.421 96.7173 24.6385C96.7173 23.856 96.952 23.224 97.4215 22.7425C97.9031 22.2489 98.6013 21.9239 99.5162 21.7674L101.882 21.3701C102.062 21.334 102.189 21.2738 102.261 21.1895C102.345 21.0932 102.387 20.9608 102.387 20.7923C102.387 20.4913 102.273 20.2506 102.044 20.07C101.815 19.8774 101.496 19.7811 101.087 19.7811C100.654 19.7811 100.305 19.8834 100.04 20.088C99.787 20.2927 99.6245 20.5876 99.5523 20.9729L96.9701 20.702C97.0905 19.8232 97.5299 19.1069 98.2883 18.5532C99.0467 17.9874 100.016 17.7045 101.196 17.7045C102.423 17.7045 103.374 18.0175 104.049 18.6435C104.735 19.2694 105.078 20.1121 105.078 21.1715V24.2051C105.078 24.4459 105.126 24.6205 105.222 24.7288C105.331 24.8251 105.493 24.8733 105.71 24.8733H106.035ZM99.4078 24.3496C99.4078 24.6506 99.5041 24.8853 99.6968 25.0538C99.9014 25.2103 100.19 25.2886 100.564 25.2886C101.105 25.2886 101.551 25.114 101.9 24.7649C102.261 24.4038 102.441 23.9523 102.441 23.4106V23.0675L100.491 23.3564C100.13 23.4166 99.8593 23.525 99.6787 23.6815C99.4981 23.838 99.4078 24.0607 99.4078 24.3496Z" fill="#A01E28"/>
<path d="M90.4828 27.3471C89.2308 27.3471 88.2317 26.9198 87.4853 26.065C86.7389 25.1983 86.3657 24.0426 86.3657 22.598C86.3657 21.1414 86.7389 19.9616 87.4853 19.0588C88.2437 18.1559 89.2429 17.7045 90.4828 17.7045C91.0366 17.7045 91.5362 17.8068 91.9816 18.0114C92.427 18.204 92.8122 18.493 93.1373 18.8782V14.4902H95.882V27.1304H93.2817V25.9386C92.9567 26.4081 92.5594 26.7633 92.0899 27.004C91.6204 27.2328 91.0847 27.3471 90.4828 27.3471ZM89.1827 22.5258C89.1827 23.2962 89.3572 23.9162 89.7063 24.3857C90.0555 24.8432 90.531 25.0719 91.1329 25.0719C91.7589 25.0719 92.2524 24.8432 92.6136 24.3857C92.9868 23.9282 93.1734 23.3083 93.1734 22.5258C93.1734 21.7794 92.9868 21.1715 92.6136 20.702C92.2404 20.2325 91.7468 19.9977 91.1329 19.9977C90.531 19.9977 90.0555 20.2265 89.7063 20.6839C89.3572 21.1414 89.1827 21.7553 89.1827 22.5258Z" fill="#A01E28"/>
<path d="M117.8 35.6174V41.5583H115.055V36.0508C115.055 35.5331 114.929 35.1359 114.676 34.859C114.423 34.5821 114.062 34.4437 113.593 34.4437C113.051 34.4437 112.635 34.6062 112.347 34.9312C112.07 35.2442 111.931 35.7077 111.931 36.3216V41.5583H109.187V32.349H111.787V33.3422C112.088 32.9449 112.461 32.644 112.906 32.4393C113.352 32.2346 113.857 32.1323 114.423 32.1323C115.471 32.1323 116.295 32.4513 116.897 33.0894C117.499 33.7154 117.8 34.558 117.8 35.6174Z" fill="#A01E28"/>
<path d="M105.13 41.5583V28.9181H107.875V41.5583H105.13Z" fill="#A01E28"/>
<path d="M99.1712 30.0919C99.1712 30.4651 99.0387 30.7841 98.7739 31.0489C98.5091 31.3138 98.184 31.4462 97.7988 31.4462C97.4256 31.4462 97.1066 31.3138 96.8418 31.0489C96.5769 30.7841 96.4445 30.4651 96.4445 30.0919C96.4445 29.7187 96.5769 29.4057 96.8418 29.1529C97.1066 28.888 97.4256 28.7556 97.7988 28.7556C98.184 28.7556 98.5091 28.888 98.7739 29.1529C99.0387 29.4057 99.1712 29.7187 99.1712 30.0919ZM102.656 30.0919C102.656 30.4651 102.524 30.7841 102.259 31.0489C102.006 31.3138 101.687 31.4462 101.302 31.4462C100.929 31.4462 100.61 31.3138 100.345 31.0489C100.08 30.7841 99.9476 30.4651 99.9476 30.0919C99.9476 29.7187 100.08 29.4057 100.345 29.1529C100.61 28.888 100.929 28.7556 101.302 28.7556C101.675 28.7556 101.994 28.888 102.259 29.1529C102.524 29.4057 102.656 29.7187 102.656 30.0919ZM94.8013 36.9537C94.8013 35.5091 95.2346 34.3474 96.1014 33.4686C96.9682 32.5778 98.1178 32.1324 99.5504 32.1324C101.007 32.1324 102.163 32.5718 103.017 33.4505C103.884 34.3293 104.318 35.4971 104.318 36.9537C104.318 38.3862 103.878 39.5479 102.999 40.4388C102.133 41.3296 100.983 41.775 99.5504 41.775C98.0937 41.775 96.9381 41.3356 96.0833 40.4568C95.2286 39.578 94.8013 38.4103 94.8013 36.9537ZM101.537 36.9537C101.537 36.111 101.368 35.467 101.031 35.0215C100.694 34.5641 100.2 34.3354 99.5504 34.3354C98.9123 34.3354 98.4248 34.5641 98.0877 35.0215C97.7506 35.479 97.5821 36.123 97.5821 36.9537C97.5821 37.7843 97.7506 38.4284 98.0877 38.8858C98.4248 39.3433 98.9123 39.572 99.5504 39.572C100.2 39.572 100.694 39.3493 101.031 38.9039C101.368 38.4464 101.537 37.7964 101.537 36.9537Z" fill="#A01E28"/>
<path d="M92.0177 35.9063L95.7014 41.5583H92.3608L90.0133 37.8746L89.1105 38.7955V41.5583H86.3657V28.9181H89.1105V35.4368L92.0177 32.349H95.4125L92.0177 35.9063Z" fill="#A01E28"/>
</svg>
