<?xml version="1.0" encoding="UTF-8"?><svg id="a" xmlns="http://www.w3.org/2000/svg" viewBox="0 0 524.41 113.39"><defs><style>.c{fill:#ef0000;}</style></defs><g id="b"><g><path class="c" d="M192.24,97.61c-14.03,0-22.66-6.98-22.89-17.95l10.98-1.25c.31,7.21,4.86,10.43,11.92,10.43,7.53,0,9.72-4.23,9.72-7.53,0-4.08-2.43-5.72-7.84-6.82l-7.06-1.41c-7.45-1.49-15.99-5.17-15.99-16.07,0-7.68,6.35-16.15,20.07-16.15s20.15,7.84,20.93,15.99l-11.05,1.25c-.86-6.51-5.02-8.47-9.88-8.47-7.21,0-9.17,3.68-9.17,6.66,0,4.16,2.59,5.88,6.9,6.74l8.39,1.65c10.04,1.96,15.92,6.66,15.92,15.52s-7.06,17.4-20.93,17.4Z"/><path class="c" d="M215.99,57h6.19v-12.15h10.27v12.15h8.55v8.23h-8.55v18.66c0,2.67,.78,4.23,3.84,4.23h5.57v8.55h-7.68c-8.7,0-12-4.16-12-11.29v-20.15h-6.19v-8.23Z"/><path class="c" d="M279.1,96.67c-2.74,0-7.21-.78-8.47-4.86-2.59,3.68-6.66,5.8-12.07,5.8-9.25,0-13.88-5.72-13.88-11.68,0-7.45,5.1-11.13,12-12.31l10.66-1.8c1.8-.31,2.27-1.33,2.27-2.59,0-1.8-1.18-5.33-6.59-5.33-5.72,0-7.21,3.53-7.68,5.88l-9.64-1.02c.86-5.96,6.19-12.7,17.72-12.7s16.23,7.06,16.23,14.58v14.66c0,1.88,.63,2.9,2.82,2.9h1.57v8.47h-4.94Zm-18.5-6.9c5.17,0,9.17-3.92,9.17-9.64v-1.8l-9.8,1.57c-3.92,.63-5.25,2.67-5.25,5.1,0,2.9,1.88,4.78,5.88,4.78Z"/><path class="c" d="M286.63,77.15c0-12.23,6.74-21.09,17.72-21.09,5.25,0,9.25,2.04,11.92,5.49v-19.76h10.27v54.88h-9.8v-5.41c-2.67,3.92-6.74,6.35-12.39,6.35-10.9,0-17.72-8.23-17.72-20.46Zm29.79-.31c0-6.98-3.68-12.23-9.88-12.23s-9.41,5.17-9.41,12.23,3.29,12.15,9.41,12.15,9.88-5.02,9.88-12.15Z"/><path class="c" d="M331.32,57h6.19v-12.15h10.27v12.15h8.55v8.23h-8.55v18.66c0,2.67,.78,4.23,3.84,4.23h5.57v8.55h-7.68c-8.7,0-12-4.16-12-11.29v-20.15h-6.19v-8.23Z"/><path class="c" d="M411.05,96.67l-15.05-22.42-6.51,7.6v14.82h-10.98V41.79h10.98v25.48l20.62-25.48h13.41l-20.07,23.99,20.78,30.89h-13.17Z"/><path class="c" d="M462.79,76.83c0,11.92-7.68,20.78-20.23,20.78s-20.07-8.86-20.07-20.78,7.53-20.78,20.07-20.78,20.23,8.78,20.23,20.78Zm-33.01-30.42c0-3.06,2.43-5.41,5.49-5.41s5.49,2.35,5.49,5.41-2.51,5.41-5.49,5.41-5.49-2.35-5.49-5.41Zm3.14,30.42c0,7.06,2.98,12.47,9.64,12.47s9.8-5.41,9.8-12.47-2.98-12.47-9.8-12.47-9.64,5.33-9.64,12.47Zm11.45-30.42c0-3.06,2.43-5.41,5.49-5.41s5.49,2.35,5.49,5.41-2.51,5.41-5.49,5.41-5.49-2.35-5.49-5.41Z"/><path class="c" d="M479.25,41.79v54.88h-10.27V41.79h10.27Z"/><path class="c" d="M513.75,96.67v-23.99c0-5.17-2.74-8-7.37-8-5.33,0-8.31,3.37-8.31,9.64v22.34h-10.27V57h9.8v4.47c2.35-3.29,6.19-5.41,11.68-5.41,10.11,0,14.74,6.74,14.74,14.97v25.64h-10.27Z"/></g><path class="c" d="M36.44,41.1h0v-2.44h0c-6.41,0-11.63-5.22-11.63-11.63s5.22-11.63,11.63-11.63c3.41,0,6.47,1.47,8.6,3.81l1.81-1.64c-2.58-2.83-6.29-4.61-10.41-4.61-7.76,0-14.08,6.31-14.08,14.08s6.31,14.08,14.08,14.08Z"/><path class="c" d="M87.2,15.39c6.41,0,11.63,5.22,11.63,11.63s-5.22,11.63-11.63,11.63v2.44c7.76,0,14.08-6.31,14.08-14.08s-6.31-14.08-14.08-14.08c-4.12,0-7.83,1.78-10.41,4.61l1.81,1.64c2.13-2.34,5.2-3.81,8.6-3.81Z"/><path class="c" d="M86.87,106.79c-1.82,0-3.3,1.48-3.3,3.3s1.48,3.3,3.3,3.3,3.3-1.48,3.3-3.3-1.48-3.3-3.3-3.3Z"/><path class="c" d="M36.77,106.79c-1.82,0-3.3,1.48-3.3,3.3s1.48,3.3,3.3,3.3,3.3-1.48,3.3-3.3-1.48-3.3-3.3-3.3Z"/><path class="c" d="M123.12,59.99c.73-1.09,.43-2.57-.66-3.3s-2.57-.43-3.3,.66l-2.23,3.35-2.74-1.83-1.82,2.73,2.74,1.83-20.52,30.78,3.96,2.64,20.52-30.78,2.74,1.83,1.83-2.74-2.74-1.83,2.23-3.35Z"/><polygon class="c" points="29.96 89.65 27.22 91.48 3.96 56.59 .47 55.64 0 59.22 23.26 94.12 20.52 95.95 22.35 98.68 31.78 92.39 29.96 89.65"/><path class="c" d="M50.7,64.08c-.38,.72-1.08,2.2-1.08,3.16,0,.73,.59,1.32,1.32,1.32s1.32-.59,1.32-1.32c0-.96-.7-2.44-1.08-3.16-.1-.19-.37-.19-.47,0Z"/><path class="c" d="M56.14,64.08c-.38,.72-1.08,2.2-1.08,3.16,0,.73,.59,1.32,1.32,1.32s1.32-.59,1.32-1.32c0-.96-.7-2.44-1.08-3.16-.1-.19-.37-.19-.47,0Z"/><path class="c" d="M61.58,64.08c-.38,.72-1.08,2.2-1.08,3.16,0,.73,.59,1.32,1.32,1.32s1.32-.59,1.32-1.32c0-.96-.7-2.44-1.08-3.16-.1-.19-.37-.19-.47,0Z"/><path class="c" d="M67.02,64.08c-.38,.72-1.08,2.2-1.08,3.16,0,.73,.59,1.32,1.32,1.32s1.32-.59,1.32-1.32c0-.96-.7-2.44-1.08-3.16-.1-.19-.37-.19-.47,0Z"/><path class="c" d="M53.42,70.67c-.38,.72-1.08,2.2-1.08,3.16,0,.73,.59,1.32,1.32,1.32s1.32-.59,1.32-1.32c0-.96-.7-2.44-1.08-3.16-.1-.19-.37-.19-.47,0Z"/><path class="c" d="M58.86,70.67c-.38,.72-1.08,2.2-1.08,3.16,0,.73,.59,1.32,1.32,1.32s1.32-.59,1.32-1.32c0-.96-.7-2.44-1.08-3.16-.1-.19-.37-.19-.47,0Z"/><path class="c" d="M64.3,70.67c-.38,.72-1.08,2.2-1.08,3.16,0,.73,.59,1.32,1.32,1.32s1.32-.59,1.32-1.32c0-.96-.7-2.44-1.08-3.16-.1-.19-.37-.19-.47,0Z"/><path class="c" d="M69.74,70.67c-.38,.72-1.08,2.2-1.08,3.16,0,.73,.59,1.32,1.32,1.32s1.32-.59,1.32-1.32c0-.96-.7-2.44-1.08-3.16-.1-.19-.37-.19-.47,0Z"/><path class="c" d="M56.14,77.26c-.38,.72-1.08,2.2-1.08,3.16,0,.73,.59,1.32,1.32,1.32s1.32-.59,1.32-1.32c0-.96-.7-2.44-1.08-3.16-.1-.19-.37-.19-.47,0Z"/><path class="c" d="M67.02,77.26c-.38,.72-1.08,2.2-1.08,3.16,0,.73,.59,1.32,1.32,1.32s1.32-.59,1.32-1.32c0-.96-.7-2.44-1.08-3.16-.1-.19-.37-.19-.47,0Z"/><path class="c" d="M74.01,67.24c0-.96-.7-2.44-1.08-3.16-.1-.19-.37-.19-.47,0-.38,.72-1.08,2.2-1.08,3.16,0,.73,.59,1.32,1.32,1.32s1.32-.59,1.32-1.32Z"/><path class="c" d="M67.91,87.95l16.76,11.64,2.82-4.2-11.33-13.26c.48-.6,.94-1.22,1.34-1.88l8.87,3.23c5.13,1.87,10.81-.78,12.67-5.91l-17.69-6.44c-.65-.24-1.09-.86-1.08-1.55v-1.88l16.57,2.92c5.38,.95,10.51-2.64,11.46-8.02l-26.66-4.7c-.79-.14-1.36-.82-1.36-1.62v-1.56h27.03c5.46,0,9.89-4.43,9.89-9.89h-32.81c-1.18,1.41-2.95,2.31-4.93,2.31-3.55,0-6.43-2.88-6.43-6.43s2.88-6.43,6.43-6.43h6.17l3.62,1.81,1.94-4.65c.6-1.43,.44-3.05-.42-4.34-.86-1.29-2.29-2.06-3.84-2.06h-1.65l-1.48-1.48c-.74-.74-1.75-1.16-2.8-1.16h-8.91l1.32,1.71c-5.44,1.86-9.75,6.17-11.6,11.61-1.85-5.45-6.15-9.76-11.6-11.61l1.32-1.71h-8.91c-1.05,0-2.06,.42-2.8,1.16l-1.48,1.48h-1.65c-1.55,0-2.98,.77-3.84,2.06-.86,1.29-1.02,2.91-.42,4.34l1.94,4.65,3.62-1.81h6.17c3.55,0,6.43,2.88,6.43,6.43s-2.88,6.43-6.43,6.43c-1.98,0-3.75-.9-4.93-2.31H6.44c0,5.46,4.43,9.89,9.89,9.89h27.03v1.56c0,.8-.57,1.48-1.36,1.62l-26.66,4.7c.95,5.38,6.08,8.97,11.46,8.02l16.57-2.92v1.88c0,.69-.43,1.31-1.08,1.55l-17.69,6.44c1.87,5.13,7.54,7.78,12.67,5.91l8.87-3.23c.41,.66,.86,1.29,1.35,1.89l-11.34,13.23,2.83,4.22,16.76-11.64c.56,.2,1.13,.36,1.71,.5l-5.65,10.77,2.68,1.92,3.4-2.73,2.64,7.06h2.64l2.64-7.06,3.4,2.73,2.68-1.92-5.65-10.77c.58-.14,1.15-.31,1.71-.51Zm16.51-60.27h2.5c.67,0,1.27,.32,1.64,.88,.37,.56,.44,1.24,.18,1.86l-.85,2.04-1.65-.83h-4.46v-1.81l2.64-2.14Zm-3.9-3.49c1.01,0,1.84,.82,1.84,1.84s-.82,1.84-1.84,1.84-1.84-.82-1.84-1.84,.82-1.84,1.84-1.84Zm-38.68,7.44h-4.46l-1.65,.83-.85-2.04c-.26-.62-.19-1.3,.18-1.86,.37-.56,.97-.88,1.64-.88h2.5l2.64,2.14v1.81Zm1.27-3.76c-1.01,0-1.84-.82-1.84-1.84s.82-1.84,1.84-1.84,1.84,.82,1.84,1.84-.82,1.84-1.84,1.84Zm3.54,20.91h30.32v9.67h-30.32v-9.67Zm15.16,36.92c-8.15,0-14.8-6.44-15.15-14.5h-.02v-10.17h30.32v10.17h-.02c-.35,8.07-6.99,14.5-15.15,14.5Z"/><path class="c" d="M61.82,15.82c2.58,0,5.01,.65,7.13,1.78l2.09-8.38-5.27,1.32-2.64-2.64v-2.97h2.64V2.64h-2.64V0h-2.64V2.64h-2.63v2.31h2.63v2.97l-2.63,2.64-5.27-1.32,2.1,8.39c2.13-1.14,4.56-1.79,7.14-1.79Z"/><path class="c" d="M95.96,99.09l-5.02-3.35-4.67,7,5.03,3.35c1.93,1.29,4.54,.76,5.83-1.17,1.29-1.93,.77-4.54-1.17-5.83Z"/><path class="c" d="M32.69,95.74l-5.02,3.35c-1.93,1.29-2.45,3.9-1.17,5.83,1.29,1.93,3.9,2.45,5.83,1.17l5.03-3.35-4.67-7Z"/><polygon class="c" points="53.84 53.43 52.88 51.59 52.39 51.59 51.44 53.43 49.96 51.59 49.57 51.59 49.57 55.67 55.7 55.67 55.7 51.59 55.31 51.59 53.84 53.43"/><polygon class="c" points="63.01 53.43 62.06 51.59 61.57 51.59 60.61 53.43 59.14 51.59 58.75 51.59 58.75 55.67 64.88 55.67 64.88 51.59 64.49 51.59 63.01 53.43"/><polygon class="c" points="72.2 53.43 71.24 51.59 70.75 51.59 69.79 53.43 68.31 51.59 67.93 51.59 67.93 55.67 74.06 55.67 74.06 51.59 73.67 51.59 72.2 53.43"/></g></svg>