<?xml version="1.0" standalone="no"?>
<!DOCTYPE svg PUBLIC "-//W3C//DTD SVG 20010904//EN"
 "http://www.w3.org/TR/2001/REC-SVG-20010904/DTD/svg10.dtd">
<svg version="1.0" xmlns="http://www.w3.org/2000/svg"
 width="2176.000000pt" height="2176.000000pt" viewBox="0 0 2176.000000 2176.000000"
 preserveAspectRatio="xMidYMid meet">
<metadata>
Created by potrace 1.14, written by Peter Selinger 2001-2017
</metadata>
<g transform="translate(0.000000,2176.000000) scale(0.100000,-0.100000)"
fill="#000000" stroke="none">
<path d="M15923 14185 c-168 -37 -285 -132 -335 -273 -12 -34 -23 -97 -27
-157 l-6 -100 -102 -3 -103 -3 0 -174 0 -175 105 0 105 0 0 -560 0 -560 218 2
217 3 3 558 2 557 255 0 255 0 0 -560 0 -560 218 2 217 3 3 558 2 557 155 0
155 0 0 175 0 175 -156 0 -156 0 4 65 c3 55 8 70 31 93 27 26 30 27 180 32
l152 5 3 178 2 179 -217 -4 c-251 -5 -307 -18 -414 -91 -113 -77 -168 -187
-176 -354 l-6 -103 -253 0 -254 0 0 56 c0 58 20 107 49 121 9 4 84 10 166 13
l150 5 3 178 2 177 -192 -1 c-121 0 -216 -6 -255 -14z"/>
<path d="M3465 14175 c-639 -66 -1231 -276 -1744 -617 -757 -504 -1318 -1262
-1564 -2113 -108 -373 -151 -677 -151 -1075 0 -279 9 -395 50 -645 128 -772
510 -1515 1064 -2065 l75 -75 3 1933 2 1933 1853 -4 c1686 -3 1861 -4 1957
-20 363 -59 617 -139 898 -281 257 -131 464 -280 675 -486 402 -390 656 -841
790 -1405 l31 -130 3 -777 4 -778 2884 0 2885 0 0 28 c0 70 -22 327 -36 417
-77 515 -282 1006 -595 1426 -429 575 -1018 997 -1724 1236 -271 91 -597 160
-853 179 -51 4 -95 10 -97 14 -2 4 71 10 163 13 378 15 764 103 1131 259 629
267 1189 755 1537 1341 290 487 436 977 470 1580 l6 117 -2886 0 -2886 0 0
-1217 c0 -669 -4 -1213 -8 -1207 -5 5 -26 50 -47 99 -416 989 -1256 1775
-2270 2124 -258 89 -490 144 -766 182 -205 27 -651 35 -854 14z"/>
<path d="M14423 13676 c-162 -31 -267 -83 -374 -183 -164 -155 -239 -364 -226
-628 11 -219 76 -374 212 -511 65 -65 98 -90 166 -122 134 -65 190 -76 374
-77 138 0 171 3 240 23 128 37 209 85 305 182 98 97 156 197 192 327 31 113
31 353 0 468 -70 258 -259 446 -512 509 -90 23 -287 29 -377 12z m283 -361
c78 -32 147 -122 172 -225 31 -128 23 -294 -20 -409 -29 -76 -99 -145 -169
-165 -105 -32 -214 -17 -291 39 -92 67 -148 240 -134 415 18 214 93 323 251
364 36 9 151 -2 191 -19z"/>
<path d="M17845 13681 c-295 -48 -514 -244 -592 -531 -26 -93 -25 -397 0 -490
73 -265 255 -436 522 -491 82 -17 124 -20 235 -16 78 3 160 12 195 21 193 53
343 180 406 345 l19 50 -33 9 c-17 5 -101 27 -185 48 -141 36 -154 38 -163 22
-31 -56 -80 -106 -124 -128 -43 -22 -63 -25 -150 -25 -90 0 -106 3 -159 29
-81 40 -140 127 -160 239 l-7 37 512 0 511 0 -5 158 c-8 255 -57 382 -207 533
-92 93 -178 144 -295 174 -71 19 -249 27 -320 16z m251 -363 c70 -32 122 -108
139 -200 l7 -38 -292 0 -292 0 7 33 c13 57 53 123 101 166 26 22 50 41 53 41
3 1 29 7 56 15 64 19 162 11 221 -17z"/>
<path d="M19506 13674 c-89 -20 -169 -60 -234 -119 l-52 -47 0 71 0 71 -210 0
-210 0 0 -735 0 -735 220 0 220 0 0 450 c0 287 4 467 11 500 23 107 110 179
229 188 110 8 189 -30 233 -111 22 -42 22 -46 25 -534 l3 -493 219 0 220 0 0
503 c-1 554 -5 608 -59 723 -34 73 -123 173 -189 211 -106 63 -292 87 -426 57z"/>
<path d="M20894 13676 c-150 -29 -258 -82 -357 -176 -156 -147 -224 -305 -234
-545 -11 -277 65 -492 224 -635 65 -57 188 -120 283 -145 86 -22 294 -31 390
-16 162 26 312 104 393 205 48 61 114 194 101 205 -9 8 -333 91 -357 91 -7 0
-21 -16 -32 -36 -61 -114 -210 -162 -367 -118 -108 31 -188 128 -205 249 l-6
45 513 0 513 0 -6 138 c-11 226 -55 364 -162 500 -88 112 -206 189 -350 227
-84 22 -254 28 -341 11z m258 -349 c77 -32 140 -117 154 -206 l7 -41 -292 0
-291 0 6 28 c28 122 113 208 227 232 53 11 147 5 189 -13z"/>
<path d="M14900 11575 l0 -345 -55 45 c-131 106 -278 146 -454 124 -213 -26
-378 -145 -477 -344 -58 -118 -84 -222 -91 -370 -13 -277 54 -490 203 -641
116 -117 228 -164 409 -171 198 -9 305 27 422 142 37 36 69 65 70 65 2 0 3
-40 3 -90 l0 -90 205 0 205 0 0 1010 0 1010 -220 0 -220 0 0 -345z m-185 -562
c140 -73 214 -256 187 -460 -14 -106 -47 -179 -109 -241 -58 -58 -120 -82
-208 -82 -123 0 -211 54 -265 163 -68 140 -68 354 1 488 28 56 100 124 152
143 60 22 189 16 242 -11z"/>
<path d="M17120 11590 l0 -220 -105 0 -105 0 0 -175 0 -175 104 0 104 0 4
-407 c5 -447 6 -459 67 -555 38 -60 97 -103 180 -130 57 -18 96 -22 289 -26
l222 -4 -2 178 -3 179 -125 5 c-71 3 -134 10 -146 17 -40 23 -44 60 -44 409
l0 334 145 0 145 0 0 175 0 175 -145 0 -145 0 0 220 0 220 -220 0 -220 0 0
-220z"/>
<path d="M16085 11400 c-241 -26 -432 -142 -518 -315 -27 -53 -53 -142 -44
-151 5 -5 333 -43 377 -44 21 0 29 7 39 38 31 84 83 126 179 143 130 23 246
-35 259 -128 8 -58 -3 -90 -35 -107 -16 -8 -127 -31 -248 -51 -244 -41 -352
-73 -437 -129 -67 -44 -107 -92 -145 -173 -25 -53 -27 -68 -27 -178 0 -116 1
-123 33 -187 55 -113 165 -196 307 -233 77 -20 253 -20 328 0 85 22 171 69
229 125 46 44 53 48 62 33 5 -10 28 -37 52 -60 63 -61 116 -75 307 -81 l157
-4 0 181 0 181 -40 0 c-54 0 -87 17 -100 53 -6 18 -10 145 -10 326 0 226 -4
311 -15 359 -45 191 -187 330 -387 381 -89 22 -228 32 -323 21z m305 -903 c0
-82 -24 -148 -75 -205 -61 -68 -127 -96 -225 -96 -108 0 -163 34 -180 111 -20
88 24 158 118 184 41 11 295 54 345 58 14 1 17 -8 17 -52z"/>
<path d="M18527 11399 c-176 -20 -297 -79 -422 -204 -74 -73 -99 -106 -132
-175 -68 -139 -78 -189 -78 -395 0 -157 3 -190 23 -258 57 -197 170 -340 336
-421 123 -60 179 -70 381 -71 161 0 188 2 255 23 174 55 289 149 360 296 23
48 41 89 38 91 -4 5 -351 95 -364 95 -5 0 -18 -16 -29 -36 -30 -56 -98 -110
-157 -124 -78 -19 -203 -8 -265 23 -82 42 -145 138 -155 237 l-3 35 508 3 507
2 0 126 c0 253 -69 435 -218 576 -113 106 -230 159 -390 178 -96 11 -97 11
-195 -1z m218 -358 c77 -34 136 -118 151 -210 l7 -41 -292 0 c-328 0 -305 -7
-271 83 33 88 99 153 180 178 50 15 183 10 225 -10z"/>
<path d="M20205 11399 c-119 -17 -229 -74 -297 -152 l-28 -31 0 77 0 77 -210
0 -210 0 0 -735 0 -735 220 0 219 0 3 473 3 472 27 57 c31 67 85 110 159 128
119 29 231 -14 278 -105 l26 -49 3 -488 3 -488 220 0 220 0 -4 538 c-3 458 -6
545 -20 591 -55 182 -178 308 -347 354 -72 20 -190 27 -265 16z"/>
<path d="M15575 9625 c-54 -19 -120 -91 -135 -145 -45 -166 130 -320 288 -255
98 42 155 148 131 247 -16 71 -74 133 -142 153 -62 18 -90 18 -142 0z"/>
<path d="M16135 9625 c-54 -19 -120 -91 -135 -145 -45 -166 130 -320 288 -254
82 34 132 110 132 199 0 98 -63 181 -156 204 -55 14 -80 13 -129 -4z"/>
<path d="M13820 8600 l0 -1010 218 2 217 3 3 220 2 221 73 72 72 71 185 -290
c101 -160 189 -293 195 -295 6 -3 126 -3 267 -2 l256 3 -293 450 -294 450 63
65 c34 36 156 163 270 283 l208 217 -270 0 -270 0 -229 -242 -228 -241 -3 516
-2 517 -220 0 -220 0 0 -1010z"/>
<path d="M16820 8600 l0 -1010 220 0 220 0 0 1010 0 1010 -220 0 -220 0 0
-1010z"/>
<path d="M15797 9089 c-213 -29 -399 -147 -512 -323 -100 -156 -138 -390 -100
-610 50 -286 229 -489 500 -568 69 -20 103 -23 240 -23 185 0 242 12 374 76
145 71 270 210 334 370 73 183 74 444 2 636 -78 206 -262 368 -479 423 -93 23
-264 33 -359 19z m269 -370 c131 -62 202 -255 176 -476 -28 -234 -134 -341
-330 -332 -195 9 -295 148 -296 409 -1 200 39 300 157 390 57 43 209 48 293 9z"/>
<path d="M18203 9090 c-111 -20 -222 -77 -282 -145 -16 -18 -32 -31 -35 -28
-3 4 -6 37 -6 75 l0 68 -205 0 -205 0 0 -735 0 -735 220 0 220 0 0 458 c0 507
2 530 62 598 53 60 100 79 198 79 97 0 152 -22 190 -75 48 -67 50 -92 50 -592
l0 -468 218 2 217 3 0 525 c0 572 -1 578 -58 700 -36 78 -138 183 -210 219
-100 48 -263 71 -374 51z"/>
</g>
</svg>
